<?xml version="1.0" encoding="utf-8"?>
<!-- Generator: Adobe Illustrator 18.1.0, SVG Export Plug-In . SVG Version: 6.00 Build 0)  -->
<!DOCTYPE svg PUBLIC "-//W3C//DTD SVG 1.1//EN" "http://www.w3.org/Graphics/SVG/1.1/DTD/svg11.dtd">
<svg version="1.1" id="Layer_1" xmlns="http://www.w3.org/2000/svg" xmlns:xlink="http://www.w3.org/1999/xlink" x="0px" y="0px"
	 viewBox="0 0 320 60" enable-background="new 0 0 320 60" xml:space="preserve">
<g>
	<g>
		<radialGradient id="SVGID_1_" cx="3.3625" cy="6.9461" r="51.2134" gradientUnits="userSpaceOnUse">
			<stop  offset="0" style="stop-color:#FFCE4E"/>
			<stop  offset="1" style="stop-color:#F3C235"/>
		</radialGradient>
		<path fill="url(#SVGID_1_)" d="M20.1,35.4l-9.8,16.3h5c1.2,0,2.6-0.8,3.2-1.8l4.2-7c0.5-1,0.5-2.5-0.1-3.4L20.1,35.4z"/>
		<radialGradient id="SVGID_2_" cx="3.3632" cy="6.9469" r="51.2122" gradientUnits="userSpaceOnUse">
			<stop  offset="0" style="stop-color:#08A960"/>
			<stop  offset="1" style="stop-color:#07914B"/>
		</radialGradient>
		<path fill="url(#SVGID_2_)" d="M15.6,27.9c0.6,1,0.6,2.7,0,3.7l-11,18.4c-0.4,0.9,0,1.6,1.1,1.6h4.6l9.8-16.3L15.6,27.9z"/>
		<radialGradient id="SVGID_3_" cx="3.3623" cy="6.9478" r="51.2111" gradientUnits="userSpaceOnUse">
			<stop  offset="0" style="stop-color:#567FC0"/>
			<stop  offset="1" style="stop-color:#547DBF"/>
		</radialGradient>
		<path fill="url(#SVGID_3_)" d="M5.7,7.8c-1.2,0-1.6,0.8-1,1.8l17.9,29.8c0.6,0.9,0.6,2.4,0.1,3.4l4.4-7.3L10.3,7.8H5.7z"/>
		<radialGradient id="SVGID_4_" cx="3.3637" cy="6.9478" r="51.2086" gradientUnits="userSpaceOnUse">
			<stop  offset="0" style="stop-color:#DE4A3F"/>
			<stop  offset="1" style="stop-color:#CC382C"/>
		</radialGradient>
		<path fill="url(#SVGID_4_)" d="M29.4,27.9l-11-18.3c-0.6-1-2.1-1.8-3.2-1.8h-5L27,35.6l2.4-4C30,30.6,30,28.9,29.4,27.9z"/>
		<linearGradient id="SVGID_5_" gradientUnits="userSpaceOnUse" x1="25.2133" y1="35.416" x2="12.8762" y2="35.416">
			<stop  offset="0" style="stop-color:#221F1F;stop-opacity:0.2"/>
			<stop  offset="1" style="stop-color:#F2F2F2;stop-opacity:0.25"/>
		</linearGradient>
		<path fill="url(#SVGID_5_)" d="M22.6,39.5l-7-11.5c0.6,1,0.6,2.7,0,3.7l-2.4,4.1l9.5,7.2C23.1,41.9,23.1,40.4,22.6,39.5z"/>
	</g>
	<radialGradient id="SVGID_6_" cx="17.1207" cy="29.7674" r="17.9343" gradientUnits="userSpaceOnUse">
		<stop  offset="0" style="stop-color:#FFFFFF;stop-opacity:0.1"/>
		<stop  offset="8.962709e-02" style="stop-color:#FFFFFF;stop-opacity:9.103730e-02"/>
		<stop  offset="1" style="stop-color:#FFFFFF;stop-opacity:0"/>
	</radialGradient>
	<path fill="url(#SVGID_6_)" d="M29.4,27.9l-11-18.3c-0.6-1-2.1-1.8-3.2-1.8h-5H5.7c-1.2,0-1.6,0.8-1,1.8l11,18.3
		c0.6,1,0.6,2.7,0,3.7l-11,18.4c-0.4,0.9,0,1.6,1.1,1.6h4.6h5c1.2,0,2.6-0.8,3.2-1.8L27,35.6l2.4-4C30,30.6,30,28.9,29.4,27.9z"/>
</g>
<g>
	<path fill="#4D4D4D" d="M127.9,21.8c-2,0-3.5,0.7-4.6,2.1c-1.1,1.4-1.7,3.3-1.7,5.7c0,2.6,0.5,4.5,1.6,5.8c1.1,1.3,2.6,2,4.7,2
		c0.9,0,1.7-0.1,2.6-0.3c0.8-0.2,1.7-0.4,2.6-0.7v2.9c-1.6,0.6-3.5,0.9-5.6,0.9c-3.1,0-5.4-0.9-7-2.8c-1.6-1.8-2.5-4.5-2.5-7.9
		c0-2.2,0.4-4.1,1.2-5.7c0.8-1.6,1.9-2.9,3.4-3.7c1.5-0.9,3.3-1.3,5.3-1.3c2.1,0,4.1,0.4,5.9,1.3l-1.2,2.8c-0.7-0.3-1.4-0.6-2.2-0.9
		C129.6,21.9,128.8,21.8,127.9,21.8z"/>
	<path fill="#4D4D4D" d="M145.3,40l-0.7-2.2h-0.1c-0.8,1-1.5,1.6-2.3,2c-0.8,0.3-1.8,0.5-3,0.5c-1.5,0-2.8-0.4-3.6-1.3
		c-0.9-0.8-1.3-2-1.3-3.6c0-1.6,0.6-2.9,1.8-3.7c1.2-0.8,3-1.3,5.5-1.4l2.7-0.1v-0.8c0-1-0.2-1.8-0.7-2.3c-0.5-0.5-1.2-0.7-2.2-0.7
		c-0.8,0-1.6,0.1-2.3,0.4c-0.7,0.2-1.5,0.5-2.1,0.8l-1.1-2.4c0.9-0.4,1.8-0.8,2.8-1c1-0.2,2-0.3,2.9-0.3c2,0,3.5,0.4,4.5,1.3
		c1,0.9,1.5,2.2,1.5,4.1V40H145.3z M140.3,37.7c1.2,0,2.2-0.3,2.9-1c0.7-0.7,1.1-1.6,1.1-2.9v-1.4l-2,0.1c-1.6,0.1-2.7,0.3-3.4,0.8
		c-0.7,0.5-1.1,1.2-1.1,2.2c0,0.7,0.2,1.2,0.6,1.6C138.8,37.5,139.5,37.7,140.3,37.7z"/>
	<path fill="#4D4D4D" d="M163.9,24.2v1.8l-2.7,0.5c0.2,0.3,0.5,0.7,0.6,1.2c0.2,0.5,0.2,1,0.2,1.5c0,1.6-0.6,2.9-1.7,3.8
		c-1.1,0.9-2.7,1.4-4.6,1.4c-0.5,0-1,0-1.4-0.1c-0.7,0.4-1.1,1-1.1,1.6c0,0.4,0.2,0.6,0.5,0.8c0.3,0.2,1,0.3,1.9,0.3h2.8
		c1.7,0,3.1,0.4,4,1.1c0.9,0.7,1.4,1.8,1.4,3.2c0,1.8-0.7,3.2-2.2,4.1c-1.5,1-3.6,1.5-6.4,1.5c-2.1,0-3.8-0.4-4.9-1.1
		c-1.1-0.8-1.7-1.8-1.7-3.3c0-1,0.3-1.8,0.9-2.4s1.5-1.1,2.6-1.4c-0.4-0.2-0.8-0.5-1.1-0.9c-0.3-0.4-0.4-0.9-0.4-1.3
		c0-0.6,0.2-1.1,0.5-1.5c0.3-0.4,0.8-0.8,1.5-1.2c-0.8-0.4-1.5-0.9-2-1.7c-0.5-0.8-0.8-1.7-0.8-2.8c0-1.7,0.5-3,1.6-4
		c1.1-0.9,2.6-1.4,4.6-1.4c0.4,0,0.9,0,1.4,0.1c0.5,0.1,0.9,0.1,1.1,0.2H163.9z M151.5,42.5c0,0.7,0.3,1.3,1,1.7
		c0.7,0.4,1.6,0.6,2.7,0.6c1.8,0,3.2-0.3,4.1-0.8c0.9-0.5,1.3-1.2,1.3-2.1c0-0.7-0.2-1.2-0.7-1.5c-0.5-0.3-1.4-0.4-2.7-0.4h-2.5
		c-1,0-1.7,0.2-2.3,0.7C151.8,41.1,151.5,41.7,151.5,42.5z M153,29.3c0,1,0.3,1.7,0.8,2.3c0.5,0.5,1.2,0.8,2.2,0.8
		c1.9,0,2.9-1,2.9-3.1c0-1-0.2-1.8-0.7-2.4c-0.5-0.6-1.2-0.8-2.2-0.8c-1,0-1.7,0.3-2.2,0.8C153.2,27.5,153,28.3,153,29.3z"/>
	<path fill="#4D4D4D" d="M175,40l-0.7-2.2h-0.1c-0.8,1-1.5,1.6-2.3,2c-0.8,0.3-1.8,0.5-3,0.5c-1.5,0-2.8-0.4-3.6-1.3
		c-0.9-0.8-1.3-2-1.3-3.6c0-1.6,0.6-2.9,1.8-3.7c1.2-0.8,3-1.3,5.5-1.4l2.7-0.1v-0.8c0-1-0.2-1.8-0.7-2.3c-0.5-0.5-1.2-0.7-2.2-0.7
		c-0.8,0-1.6,0.1-2.3,0.4c-0.7,0.2-1.5,0.5-2.1,0.8l-1.1-2.4c0.9-0.4,1.8-0.8,2.8-1c1-0.2,2-0.3,2.9-0.3c2,0,3.5,0.4,4.5,1.3
		c1,0.9,1.5,2.2,1.5,4.1V40H175z M170,37.7c1.2,0,2.2-0.3,2.9-1c0.7-0.7,1.1-1.6,1.1-2.9v-1.4l-2,0.1c-1.6,0.1-2.7,0.3-3.4,0.8
		c-0.7,0.5-1.1,1.2-1.1,2.2c0,0.7,0.2,1.2,0.6,1.6C168.5,37.5,169.2,37.7,170,37.7z"/>
	<path fill="#4D4D4D" d="M177.9,24.2h3.7l3.2,8.9c0.5,1.3,0.8,2.5,1,3.6h0.1c0.1-0.5,0.2-1.2,0.5-1.9c0.2-0.7,1.4-4.3,3.6-10.6h3.6
		l-6.7,17.9c-1.2,3.3-3.3,4.9-6.1,4.9c-0.7,0-1.5-0.1-2.2-0.2v-2.7c0.5,0.1,1.1,0.2,1.7,0.2c1.6,0,2.8-0.9,3.4-2.8l0.6-1.5
		L177.9,24.2z"/>
	<path fill="#4D4D4D" d="M204.1,40l-0.7-2.2h-0.1c-0.8,1-1.5,1.6-2.3,2c-0.8,0.3-1.8,0.5-3,0.5c-1.5,0-2.8-0.4-3.6-1.3
		c-0.9-0.8-1.3-2-1.3-3.6c0-1.6,0.6-2.9,1.8-3.7c1.2-0.8,3-1.3,5.5-1.4l2.7-0.1v-0.8c0-1-0.2-1.8-0.7-2.3c-0.5-0.5-1.2-0.7-2.2-0.7
		c-0.8,0-1.6,0.1-2.3,0.4c-0.7,0.2-1.5,0.5-2.1,0.8l-1.1-2.4c0.9-0.4,1.8-0.8,2.8-1c1-0.2,2-0.3,2.9-0.3c2,0,3.5,0.4,4.5,1.3
		c1,0.9,1.5,2.2,1.5,4.1V40H204.1z M199.1,37.7c1.2,0,2.2-0.3,2.9-1c0.7-0.7,1.1-1.6,1.1-2.9v-1.4l-2,0.1c-1.6,0.1-2.7,0.3-3.4,0.8
		c-0.7,0.5-1.1,1.2-1.1,2.2c0,0.7,0.2,1.2,0.6,1.6C197.6,37.5,198.2,37.7,199.1,37.7z"/>
	<path fill="#4D4D4D" d="M223.3,40h-3.4v-9.7c0-1.2-0.2-2.1-0.7-2.7c-0.5-0.6-1.3-0.9-2.3-0.9c-1.4,0-2.5,0.4-3.1,1.3
		c-0.7,0.8-1,2.2-1,4.2V40h-3.4V24.2h2.6l0.5,2.1h0.2c0.5-0.8,1.2-1.3,2-1.7c0.9-0.4,1.8-0.6,2.9-0.6c3.8,0,5.7,1.9,5.7,5.8V40z"/>
	<path fill="#4D4D4D" d="M237.3,40.3c-2,0-3.5-0.7-4.6-2.1c-1.1-1.4-1.7-3.4-1.7-6c0-2.6,0.6-4.6,1.7-6c1.1-1.4,2.7-2.2,4.6-2.2
		c2.1,0,3.7,0.8,4.7,2.3h0.2c-0.2-1.1-0.2-2-0.2-2.7v-5.7h3.4V40h-2.6l-0.6-2.1h-0.2C241,39.5,239.4,40.3,237.3,40.3z M238.2,37.6
		c1.4,0,2.4-0.4,3-1.2c0.6-0.8,1-2,1-3.8v-0.5c0-2-0.3-3.4-1-4.2c-0.6-0.8-1.7-1.3-3-1.3c-1.2,0-2.1,0.5-2.7,1.4c-0.6,1-1,2.3-1,4.1
		c0,1.7,0.3,3.1,0.9,4C236.1,37.1,237,37.6,238.2,37.6z"/>
	<path fill="#4D4D4D" d="M255.4,40.3c-2.5,0-4.4-0.7-5.8-2.1c-1.4-1.4-2.1-3.4-2.1-5.9c0-2.6,0.6-4.6,1.9-6.1s3-2.2,5.3-2.2
		c2.1,0,3.7,0.6,4.9,1.9c1.2,1.3,1.8,3,1.8,5.2v1.8H251c0,1.5,0.5,2.7,1.2,3.5c0.8,0.8,1.9,1.2,3.3,1.2c0.9,0,1.8-0.1,2.6-0.3
		c0.8-0.2,1.7-0.5,2.6-0.9v2.7c-0.8,0.4-1.6,0.7-2.5,0.8C257.4,40.2,256.4,40.3,255.4,40.3z M254.7,26.5c-1.1,0-1.9,0.3-2.6,1
		c-0.6,0.7-1,1.7-1.1,3h7.2c0-1.3-0.3-2.3-0.9-3C256.6,26.8,255.8,26.5,254.7,26.5z"/>
	<path fill="#4D4D4D" d="M288.2,29.5c0,3.4-0.8,6-2.5,7.9c-1.7,1.9-4.1,2.8-7.2,2.8c-3.1,0-5.6-0.9-7.3-2.8c-1.7-1.9-2.5-4.5-2.5-8
		c0-3.4,0.8-6.1,2.5-7.9s4.1-2.8,7.3-2.8c3.1,0,5.5,0.9,7.2,2.8C287.4,23.5,288.2,26.1,288.2,29.5z M272.3,29.5
		c0,2.6,0.5,4.5,1.6,5.8c1,1.3,2.6,2,4.6,2c2,0,3.6-0.7,4.6-2c1-1.3,1.5-3.3,1.5-5.9c0-2.6-0.5-4.5-1.5-5.8c-1-1.3-2.5-2-4.6-2
		c-2,0-3.6,0.7-4.6,2C272.8,25,272.3,27,272.3,29.5z"/>
	<path fill="#4D4D4D" d="M298.6,23.9c0.7,0,1.2,0,1.7,0.1l-0.3,3.1c-0.5-0.1-1-0.2-1.5-0.2c-1.3,0-2.4,0.4-3.3,1.3s-1.2,2-1.2,3.4
		V40h-3.4V24.2h2.6l0.4,2.8h0.2c0.5-0.9,1.2-1.7,2-2.2C296.7,24.2,297.6,23.9,298.6,23.9z"/>
	<path fill="#4D4D4D" d="M315.4,32.1c0,2.6-0.7,4.6-2,6c-1.3,1.4-3.2,2.2-5.5,2.2c-1.5,0-2.8-0.3-3.9-1c-1.1-0.7-2-1.6-2.6-2.9
		c-0.6-1.2-0.9-2.7-0.9-4.3c0-2.6,0.7-4.6,2-6c1.3-1.4,3.2-2.2,5.5-2.2c2.3,0,4.1,0.7,5.4,2.2C314.8,27.6,315.4,29.6,315.4,32.1z
		 M304,32.1c0,3.6,1.3,5.5,4,5.5c2.7,0,4-1.8,4-5.5c0-3.6-1.3-5.4-4-5.4c-1.4,0-2.4,0.5-3.1,1.4C304.3,29,304,30.3,304,32.1z"/>
</g>
<g>
	<g>
		<path fill="#4D4D4D" d="M87.6,37.1"/>
		<path fill="#4D4D4D" d="M49.8,28h9v11.2c-2.4,0.8-5.1,1.3-8,1.3c-3.2,0-5.7-0.9-7.4-2.8c-1.8-1.9-2.6-4.5-2.6-8c0-3.4,1-6,2.9-7.8
			c1.9-1.9,4.6-2.8,8-2.8c1.3,0,2.5,0.1,3.7,0.4c1.2,0.2,2.2,0.6,3,0.9l-1.8,4.4c-1.5-0.7-3.1-1.1-4.9-1.1c-1.6,0-2.9,0.5-3.8,1.6
			c-0.9,1.1-1.3,2.6-1.3,4.6c0,1.9,0.4,3.4,1.2,4.4c0.8,1,2,1.5,3.5,1.5c0.8,0,1.6-0.1,2.3-0.2v-3.3h-3.7V28z"/>
		<path fill="#4D4D4D" d="M73.7,29.5c0-1.9-0.4-3.3-1.1-4.2c-0.8-0.9-1.9-1.4-3.4-1.4h-1.6v11.6h1.3c1.7,0,3-0.5,3.8-1.5
			C73.3,33.1,73.7,31.6,73.7,29.5 M79.5,29.3c0,3.5-0.9,6.1-2.9,8c-1.9,1.9-4.6,2.8-8,2.8h-6.7V19.4h7.2c3.3,0,5.9,0.9,7.7,2.6
			C78.6,23.6,79.5,26.1,79.5,29.3"/>
		<path fill="#4D4D4D" d="M90.4,28h9v11.2c-2.4,0.8-5.1,1.3-8,1.3c-3.2,0-5.7-0.9-7.4-2.8c-1.7-1.9-2.6-4.5-2.6-8c0-3.4,1-6,2.9-7.8
			c1.9-1.9,4.6-2.8,8.1-2.8c1.3,0,2.5,0.1,3.7,0.4c1.2,0.2,2.2,0.6,3,0.9l-1.8,4.4c-1.5-0.7-3.1-1.1-4.9-1.1c-1.6,0-2.9,0.5-3.8,1.6
			c-0.9,1.1-1.3,2.6-1.3,4.6c0,1.9,0.4,3.4,1.2,4.4c0.8,1,2,1.5,3.5,1.5c0.8,0,1.6-0.1,2.3-0.2v-3.3h-3.7V28z"/>
	</g>
</g>
</svg>
